<svg xmlns="http://www.w3.org/2000/svg" width="63" height="30" viewBox="0 0 63 30">
  <path id="e" d="M47.829,30C40.346,30,35.716,24.6,30.4,16.607S21.273,3.617,15.171,3.617A11.467,11.467,0,0,0,3.647,15,11.467,11.467,0,0,0,15.171,26.383c4.988,0,8.551-3.607,11.9-8.193l2.154,3.19C25.573,26.152,21.341,30,15.171,30A15.1,15.1,0,0,1,0,15,15.1,15.1,0,0,1,15.171,0C22.654,0,27.479,5.648,32.59,13.38s9.137,13,15.239,13a11.555,11.555,0,0,0,10.129-5.956h4.015A15.192,15.192,0,0,1,47.857,30Zm-2.85-13.191V13.191H59.207A11.5,11.5,0,0,0,47.829,3.617c-4.99,0-8.554,3.61-11.908,8.2l-2.169-3.17C37.413,3.862,41.648,0,47.829,0A15.1,15.1,0,0,1,63,15a14.808,14.808,0,0,1-.111,1.808Z" fill="#fff"/>
</svg>
